# xmcd
#
# Track frame offsets: 
#        150
#        12555
#        24009
#        37244
#        50131
#        60077
#        72439
#        85658
#        98515
#        109112
#        121686
#        133348
#        144183
#        154707
#
# Disc length: 2230 seconds
#
# Revision: 3
# Processed by: cddbd v1.5.2PL0 Copyright (c) Steve Scherf et al.
# Submitted via: ExactAudioCopy v1.1
#
DISCID=b008b40e
DTITLE=The Temptations - Meet The Temptations
DYEAR=1999
DGENRE=Motown
TTITLE0=The Way You Do The Things You Do (stereo)
TTITLE1=I Want A Love I Can See (stereo)
TTITLE2=Dream Come True (stereo)
TTITLE3=Paradise (stereo)
TTITLE4=May I Have This Dance (stereo)
TTITLE5=Isn't She Pretty (stereo)
TTITLE6=Just Let Me Know (stereo)
TTITLE7=Your Wonderful Love (stereo)
TTITLE8=The Further You Look, The Less You See (stereo)
TTITLE9=Check Yourself (stereo)
TTITLE10=Slow Down Heart (stereo)
TTITLE11=Farewell My Love (stereo)
TTITLE12=Oh, Mother Of Mine (mono)
TTITLE13=Romance Without Finance (mono)
EXTD=
EXTT0=
EXTT1=
EXTT2=
EXTT3=
EXTT4=
EXTT5=
EXTT6=
EXTT7=
EXTT8=
EXTT9=
EXTT10=
EXTT11=
EXTT12=
EXTT13=
PLAYORDER=
